<svg width="430" height="54" viewBox="0 0 430 54" fill="none" xmlns="http://www.w3.org/2000/svg">
<g clip-path="url(#clip0_1_390)">
<path d="M26.5456 4.53416C23.8978 3.70136 21.5337 3.23869 19.2641 3.23869C15.9544 3.23869 13.3065 3.97896 11.3207 5.55203C9.33482 7.1251 8.38917 9.34591 8.38917 12.1219C8.38917 13.695 8.76743 15.083 9.42939 16.2859C10.0913 17.4889 11.037 18.5067 12.1718 19.4321C13.3066 20.3574 14.6305 21.1902 16.1435 21.838C17.6565 22.5782 19.1696 23.226 20.7772 23.9662C22.4793 24.7065 24.1815 25.4468 25.7891 26.2796C27.3967 27.1124 28.9098 28.0377 30.2337 29.1481C31.5576 30.2585 32.5978 31.554 33.3543 33.1271C34.1108 34.7001 34.5836 36.4583 34.5836 38.494C34.5836 43.3983 32.5978 47.0864 28.7206 49.6774C24.8435 52.2683 19.7505 53.5638 13.6038 53.5638C9.63203 53.5638 5.20099 52.916 0.378178 51.6206L0.189049 51.343L1.98578 38.8641L3.68795 38.5865L6.33577 49.0296C8.98358 50.0475 11.726 50.6027 14.4548 50.6027C18.1429 50.6027 21.0744 49.7699 23.1413 48.1968C25.2217 46.6238 26.2619 44.3104 26.2619 41.2568C26.2619 39.6837 25.8837 38.2957 25.2217 37.0928C24.5598 35.8899 23.6141 34.872 22.4793 34.0392C21.3446 33.2064 20.0207 32.3736 18.6022 31.7258C17.1837 30.9856 15.6707 30.3378 14.0631 29.6901C12.2663 28.9498 10.5642 28.117 8.95656 27.2842C7.34896 26.4514 5.83592 25.4335 4.41745 24.3231C3.09354 23.2127 1.95876 21.8247 1.20224 20.1591C0.445725 18.4935 -0.0270996 16.5503 -0.0270996 14.3295C-0.0270996 9.88789 1.8642 6.47737 5.64679 4.07149C9.4429 1.66561 14.1711 0.462677 19.7505 0.462677C23.7222 0.462677 27.8695 0.925345 32.2195 1.85068L32.5032 2.12828L30.5174 13.4042L29.0043 13.6818L26.5456 4.53416Z" fill="#333318"/>
<path d="M66.7088 0.370148L83.4332 45.3019C84.0952 46.9675 84.6626 48.1704 85.1354 48.7256C85.6082 49.2808 86.3647 49.7435 87.3104 50.1136L90.8093 51.1315L90.9039 52.7045C87.5941 52.612 84.568 52.612 81.7446 52.612C78.9211 52.612 75.5033 52.612 71.6396 52.7045L71.4505 51.1315L75.044 50.1136C75.5168 49.9285 75.8951 49.7435 76.0842 49.5584C76.2733 49.3733 76.3679 49.0032 76.3679 48.5405C76.3679 48.0779 76.2733 47.4301 75.9896 46.5973C75.7059 45.7645 75.3277 44.7466 74.8549 43.4512L71.356 33.5633H53.3076L49.3358 43.3586C48.7685 44.7466 48.3902 45.8571 48.1065 46.5973C47.8228 47.4301 47.6337 48.0779 47.6337 48.5405C47.6337 49.0032 47.7282 49.2808 48.0119 49.4659C48.2956 49.6509 48.5793 49.836 49.0522 50.0211L52.5511 51.0389L52.6456 52.7045C49.0522 52.612 46.2152 52.612 43.9592 52.612C41.7031 52.612 39.1363 52.612 36.394 52.7045L36.2048 51.1315L39.9874 50.0211C40.9331 49.7435 41.595 49.2808 42.0679 48.6331C42.5407 47.9853 43.0135 47.06 43.5809 45.7645L62.737 0.92535L66.7088 0.370148ZM54.7125 30.3246H70.2077L62.8316 10.073L54.7125 30.3246Z" fill="#333318"/>
<path d="M109.412 52.612C106.291 52.612 102.887 52.612 99.2121 52.7045L99.0229 51.1315L104.602 49.5584C105.264 49.3733 105.548 49.0032 105.548 48.448C105.642 46.5973 105.642 44.1914 105.642 41.3229V4.62668H92.4169L89.1071 14.422L87.5941 14.6996L86.6484 1.57307L86.9321 1.29547C93.0788 1.388 99.0229 1.48054 104.602 1.48054H114.613C120.192 1.48054 126.136 1.388 132.377 1.29547L132.566 1.57307L130.202 14.5146L128.689 14.7922L126.325 4.71922H113.1V41.2436C113.1 44.1121 113.1 46.518 113.194 48.3687C113.194 48.9239 113.572 49.294 114.14 49.4791L119.719 51.0521L119.814 52.6252C115.842 52.7178 112.343 52.6252 109.425 52.6252L109.412 52.612Z" fill="#333318"/>
<path d="M150.426 41.3229V45.3018C150.426 46.5048 150.426 47.5226 150.52 48.5405C150.52 49.2808 150.899 49.7434 151.466 50.021L155.627 51.224L155.721 52.7971C152.695 52.7045 149.764 52.7045 146.751 52.7045C143.739 52.7045 140.604 52.7045 137.403 52.7971L137.214 51.224L141.847 49.836C142.509 49.6509 142.793 49.2808 142.888 48.7256C142.888 47.7077 142.888 46.6898 142.982 45.3944V8.0372C142.982 7.01933 142.982 6.09399 142.888 5.35373C142.888 4.70599 142.604 4.33585 141.942 4.05825L137.308 2.57772L137.214 1.00464C140.429 1.09718 143.644 1.18971 146.657 1.18971C147.224 1.18971 148.075 1.18971 149.021 1.09718C149.966 1.09718 151.101 1.00464 152.425 1.00464C153.749 0.912109 154.978 0.912109 155.829 0.912109H158.004C163.773 0.912109 168.109 1.92998 170.946 4.05825C173.878 6.18653 175.296 9.24014 175.296 13.2984C175.296 16.9997 174.351 19.9608 172.365 22.1684C170.379 24.4818 167.353 26.1474 163.3 27.4428C164.908 29.7562 166.421 32.0695 167.745 34.2903C169.068 36.5111 170.298 38.4543 171.527 40.305C172.662 42.1557 173.702 43.7288 174.742 45.1168C175.688 46.5048 176.634 47.6152 177.39 48.448C177.863 48.9106 178.241 49.1882 178.714 49.5584C179.187 49.836 179.565 50.1136 180.038 50.2986C180.511 50.4837 180.984 50.6688 181.551 50.8539C182.024 51.0389 182.591 51.1315 183.253 51.3165L183.348 52.8896C181.551 53.0747 180.038 53.2597 178.809 53.2597C177.768 53.2597 176.917 53.2597 176.066 53.1672C175.31 53.0747 174.553 52.9821 173.986 52.8896L172.284 52.3344C171.811 52.0568 171.338 51.7792 170.771 51.409C169.73 50.6688 168.69 49.5584 167.745 48.0778C166.704 46.6898 165.664 45.0242 164.624 43.1736C163.584 41.3229 162.449 39.4722 161.22 37.3439C160.085 35.3082 158.855 33.2725 157.532 31.3292C157.153 30.774 156.87 30.3114 156.586 29.9412C156.302 29.5711 156.019 29.2935 155.735 29.1084C155.451 28.9234 155.073 28.7383 154.6 28.7383C154.127 28.7383 153.654 28.6458 152.992 28.5532L150.345 28.4607V41.3097H150.439L150.426 41.3229ZM150.426 25.7904C151.939 25.883 153.357 25.883 154.681 25.883C159.031 25.883 162.152 24.9576 164.219 23.1995C166.205 21.4414 167.245 18.5728 167.245 14.6996C167.245 10.8264 166.299 8.22227 164.313 6.56988C162.422 4.81174 159.396 3.97894 155.248 3.97894C154.587 3.97894 153.83 3.97894 152.979 4.07147C152.222 4.16401 151.277 4.16401 150.426 4.25654V25.8037V25.7904Z" fill="#333318"/>
<path d="M212.879 0.370148L229.604 45.3019C230.265 46.9675 230.833 48.1704 231.306 48.7256C231.778 49.2808 232.535 49.7435 233.481 50.1136L236.98 51.1315L237.074 52.7045C233.764 52.612 230.738 52.612 227.915 52.612C225.091 52.612 221.674 52.612 217.81 52.7045L217.621 51.1315L221.214 50.1136C221.687 49.9285 222.065 49.7435 222.254 49.5584C222.444 49.3733 222.538 49.0032 222.538 48.5405C222.538 48.0779 222.444 47.4301 222.16 46.5973C221.876 45.7645 221.498 44.7466 221.025 43.4512L217.526 33.5633H199.383L195.412 43.3586C194.844 44.7466 194.466 45.8571 194.182 46.5973C193.899 47.4301 193.709 48.0779 193.709 48.5405C193.709 49.0032 193.804 49.2808 194.088 49.4659C194.371 49.6509 194.655 49.836 195.128 50.0211L198.627 51.0389L198.721 52.7045C195.128 52.612 192.291 52.612 190.035 52.612C187.779 52.612 185.212 52.612 182.47 52.7045L182.281 51.1315L186.063 50.0211C187.009 49.7435 187.671 49.2808 188.144 48.6331C188.616 47.9853 189.089 47.06 189.657 45.7645L208.813 0.92535L212.879 0.370148ZM200.869 30.3246H216.364L208.988 10.073L200.869 30.3246Z" fill="#333318"/>
<path d="M252.461 41.3229V45.3018C252.461 46.5048 252.461 47.5226 252.556 48.448C252.556 49.0032 252.934 49.3733 253.501 49.5584L258.703 51.1315L258.797 52.7045C255.204 52.612 251.894 52.612 248.881 52.612C245.869 52.612 242.735 52.612 239.533 52.7045L239.344 51.1315L243.977 49.7435C244.639 49.5584 244.923 49.1883 245.018 48.633C245.018 47.6152 245.018 46.5973 245.112 45.3018V7.94468C245.112 6.92681 245.112 6.00147 245.018 5.2612C245.018 4.61346 244.734 4.24333 244.072 3.96573L239.438 2.48519L239.344 0.912118C242.559 1.00465 245.774 1.09719 248.787 1.09719C250.867 1.09719 252.853 1.00465 254.839 0.912118C256.73 0.819584 258.527 0.727051 260.135 0.727051C266.092 0.727051 270.523 1.83745 273.549 4.1508C276.575 6.46414 278.088 9.79535 278.088 14.3163C278.088 19.5907 276.292 23.649 272.793 26.61C269.294 29.5711 264.39 30.9591 257.96 30.9591C256.257 30.9591 254.366 30.8666 252.38 30.589V41.3097H252.475L252.461 41.3229ZM252.461 27.7337C254.258 28.0113 255.96 28.1963 257.662 28.1963C261.634 28.1963 264.755 27.1785 266.822 25.1427C268.902 23.107 269.942 20.0534 269.942 15.9026C269.942 11.7518 268.902 8.96255 266.916 6.94002C264.93 4.99682 261.81 3.97895 257.473 3.97895C255.771 3.97895 254.069 4.07148 252.367 4.25655V27.7337H252.461Z" fill="#333318"/>
<path d="M294.232 1.29546H303.391C308.97 1.29546 314.915 1.20293 321.156 1.1104L321.345 1.388L319.17 12.7564L317.657 13.034L315.293 4.53414H297.906V24.7858H301.311C303.958 24.7858 306.795 24.7858 309.997 24.6933C310.659 24.6933 311.037 24.3231 311.321 23.7679L312.645 18.7711L314.631 18.6786C314.536 22.1023 314.536 24.6933 314.536 26.2663C314.536 27.8394 314.536 30.3378 314.631 33.7616L312.645 33.9466L311.321 28.9498C311.132 28.3021 310.754 28.0245 310.186 27.9319C306.971 27.8394 303.945 27.8394 301.405 27.8394H298.001V41.2436C298.001 43.927 298.001 46.6105 298.095 49.2808H316.144L320.778 39.9481L322.48 39.6705L321.629 52.4269L321.345 52.7045C314.82 52.612 308.876 52.612 303.391 52.612H294.421C291.395 52.612 288.274 52.612 285.073 52.7045L284.883 51.1315L289.517 49.7434C290.179 49.5584 290.463 49.1882 290.557 48.633C290.557 47.6152 290.557 46.5973 290.652 45.3018V7.94467C290.652 6.9268 290.652 6.00146 290.557 5.26119C290.557 4.61346 290.274 4.24332 289.612 3.96572L284.978 2.48518L284.883 0.912109C288.193 1.28224 291.314 1.28224 294.232 1.28224V1.29546Z" fill="#333318"/>
<path d="M330.977 52.7971L330.788 51.224L359.792 4.62669H337.583L334.841 13.4042L333.328 13.6818L331.342 1.48054L331.626 1.20294C337.867 1.29548 343.811 1.38801 349.39 1.38801H358.266C361.859 1.38801 365.453 1.29548 369.033 1.20294L369.222 2.77601L340.312 49.3733H363.089L368.101 39.4854L369.803 39.2078L368.763 52.5195L368.573 52.7971C361.481 52.7045 355.253 52.7045 349.768 52.7045H340.704C337.299 52.612 333.99 52.7045 330.977 52.7971Z" fill="#333318"/>
<path d="M430 25.7904C430 34.2903 427.541 41.0453 422.624 46.2271C417.707 51.409 410.817 54 402.022 54C393.228 54 387.189 51.5941 382.556 46.8749C377.922 42.0631 375.652 35.6915 375.652 27.5486C375.652 19.4056 378.111 12.3863 383.028 7.38945C387.946 2.48516 394.835 -0.0132446 403.63 -0.0132446C412.425 -0.0132446 418.558 2.3001 423.097 6.92678C427.731 11.4609 430 17.8325 430 25.7904ZM383.893 26.2531C383.893 34.1978 385.501 40.3975 388.81 44.6541C392.12 48.9106 396.929 51.0389 403.36 51.0389C409.79 51.0389 414.316 49.0957 417.247 45.2093C420.273 41.3229 421.786 35.3214 421.786 26.9934C421.786 19.2205 420.179 13.3116 416.964 9.14759C413.748 4.98357 408.845 2.8553 402.225 2.8553C395.606 2.8553 391.08 4.79851 388.148 8.68492C385.311 12.5713 383.893 18.3877 383.893 26.2531Z" fill="#333318"/>
</g>
<rect x="0.5" y="0.5" width="429" height="53" stroke="#EFEFE8"/>
<defs>
<clipPath id="clip0_1_390">
<rect width="430" height="54" fill="white"/>
</clipPath>
</defs>
</svg>
