<svg width="27" height="28" viewBox="0 0 27 28" fill="none" xmlns="http://www.w3.org/2000/svg">
<path d="M20.5 0.5H6.5C4.9087 0.5 3.38258 1.13276 2.25736 2.25908C1.13214 3.38541 0.5 4.91303 0.5 6.50589V20.5196C0.5 22.1125 1.13214 23.6401 2.25736 24.7664C3.38258 25.8928 4.9087 26.5255 6.5 26.5255H20.5C22.0913 26.5255 23.6174 25.8928 24.7426 24.7664C25.8679 23.6401 26.5 22.1125 26.5 20.5196V6.50589C26.5 4.91303 25.8679 3.38541 24.7426 2.25908C23.6174 1.13276 22.0913 0.5 20.5 0.5Z" stroke="#EFEFE8" stroke-linecap="round" stroke-linejoin="round"/>
<path d="M9.91803 20.5476V14.6859M9.91803 14.6859V6.47784H16.288C17.0837 6.47784 17.8467 6.79423 18.4094 7.35739C18.972 7.92055 19.288 8.68436 19.288 9.48079V11.6829C19.288 12.4794 18.972 13.2432 18.4094 13.8064C17.8467 14.3695 17.0837 14.6859 16.288 14.6859H9.91803Z" stroke="#EFEFE8" stroke-linecap="round" stroke-linejoin="round"/>
</svg>
